<svg xmlns="http://www.w3.org/2000/svg" width="540" height="140" viewBox="0 0 540 140">
  <title>momentum · logo light</title>
  <rect width="540" height="140" fill="#faf5ec" rx="14"/>
  <g transform="translate(20,20)">
  <path d="M50.00 46.00L50.29 45.77" fill="none" stroke="#c8572a" stroke-width="0.800" stroke-linecap="round"/>
  <path d="M50.29 45.77L50.61 45.55" fill="none" stroke="#c8572a" stroke-width="0.848" stroke-linecap="round"/>
  <path d="M50.61 45.55L50.97 45.37" fill="none" stroke="#c8572a" stroke-width="0.896" stroke-linecap="round"/>
  <path d="M50.97 45.37L51.35 45.21" fill="none" stroke="#c8572a" stroke-width="0.944" stroke-linecap="round"/>
  <path d="M51.35 45.21L51.76 45.09" fill="none" stroke="#c8572a" stroke-width="0.993" stroke-linecap="round"/>
  <path d="M51.76 45.09L52.19 45.00" fill="none" stroke="#c8572a" stroke-width="1.041" stroke-linecap="round"/>
  <path d="M52.19 45.00L52.64 44.94" fill="none" stroke="#c8572a" stroke-width="1.089" stroke-linecap="round"/>
  <path d="M52.64 44.94L53.11 44.93" fill="none" stroke="#c8572a" stroke-width="1.137" stroke-linecap="round"/>
  <path d="M53.11 44.93L53.59 44.95" fill="none" stroke="#c8572a" stroke-width="1.185" stroke-linecap="round"/>
  <path d="M53.59 44.95L54.08 45.02" fill="none" stroke="#c8572a" stroke-width="1.233" stroke-linecap="round"/>
  <path d="M54.08 45.02L54.58 45.14" fill="none" stroke="#c8572a" stroke-width="1.281" stroke-linecap="round"/>
  <path d="M54.58 45.14L55.09 45.30" fill="none" stroke="#c8572a" stroke-width="1.329" stroke-linecap="round"/>
  <path d="M55.09 45.30L55.59 45.51" fill="none" stroke="#c8572a" stroke-width="1.377" stroke-linecap="round"/>
  <path d="M55.59 45.51L56.08 45.76" fill="none" stroke="#c8572a" stroke-width="1.426" stroke-linecap="round"/>
  <path d="M56.08 45.76L56.57 46.06" fill="none" stroke="#c8572a" stroke-width="1.474" stroke-linecap="round"/>
  <path d="M56.57 46.06L57.04 46.41" fill="none" stroke="#c8572a" stroke-width="1.522" stroke-linecap="round"/>
  <path d="M57.04 46.41L57.49 46.81" fill="none" stroke="#c8572a" stroke-width="1.570" stroke-linecap="round"/>
  <path d="M57.49 46.81L57.92 47.25" fill="none" stroke="#c8572a" stroke-width="1.618" stroke-linecap="round"/>
  <path d="M57.92 47.25L58.33 47.74" fill="none" stroke="#c8572a" stroke-width="1.666" stroke-linecap="round"/>
  <path d="M58.33 47.74L58.70 48.27" fill="none" stroke="#c8572a" stroke-width="1.714" stroke-linecap="round"/>
  <path d="M58.70 48.27L59.04 48.84" fill="none" stroke="#c8572a" stroke-width="1.763" stroke-linecap="round"/>
  <path d="M59.04 48.84L59.35 49.45" fill="none" stroke="#c8572a" stroke-width="1.811" stroke-linecap="round"/>
  <path d="M59.35 49.45L59.61 50.09" fill="none" stroke="#c8572a" stroke-width="1.859" stroke-linecap="round"/>
  <path d="M59.61 50.09L59.82 50.77" fill="none" stroke="#c8572a" stroke-width="1.907" stroke-linecap="round"/>
  <path d="M59.82 50.77L59.98 51.48" fill="none" stroke="#c8572a" stroke-width="1.955" stroke-linecap="round"/>
  <path d="M59.98 51.48L60.10 52.22" fill="none" stroke="#c8572a" stroke-width="2.003" stroke-linecap="round"/>
  <path d="M60.10 52.22L60.16 52.97" fill="none" stroke="#c8572a" stroke-width="2.051" stroke-linecap="round"/>
  <path d="M60.16 52.97L60.16 53.75" fill="none" stroke="#c8572a" stroke-width="2.099" stroke-linecap="round"/>
  <path d="M60.16 53.75L60.10 54.54" fill="none" stroke="#c8572a" stroke-width="2.147" stroke-linecap="round"/>
  <path d="M60.10 54.54L59.98 55.33" fill="none" stroke="#c8572a" stroke-width="2.196" stroke-linecap="round"/>
  <path d="M59.98 55.33L59.79 56.13" fill="none" stroke="#c8572a" stroke-width="2.244" stroke-linecap="round"/>
  <path d="M59.79 56.13L59.55 56.94" fill="none" stroke="#c8572a" stroke-width="2.292" stroke-linecap="round"/>
  <path d="M59.55 56.94L59.23 57.73" fill="none" stroke="#c8572a" stroke-width="2.340" stroke-linecap="round"/>
  <path d="M59.23 57.73L58.86 58.52" fill="none" stroke="#c8572a" stroke-width="2.388" stroke-linecap="round"/>
  <path d="M58.86 58.52L58.42 59.29" fill="none" stroke="#c8572a" stroke-width="2.436" stroke-linecap="round"/>
  <path d="M58.42 59.29L57.91 60.03" fill="none" stroke="#c8572a" stroke-width="2.484" stroke-linecap="round"/>
  <path d="M57.91 60.03L57.34 60.75" fill="none" stroke="#c8572a" stroke-width="2.533" stroke-linecap="round"/>
  <path d="M57.34 60.75L56.71 61.44" fill="none" stroke="#c8572a" stroke-width="2.581" stroke-linecap="round"/>
  <path d="M56.71 61.44L56.01 62.09" fill="none" stroke="#c8572a" stroke-width="2.629" stroke-linecap="round"/>
  <path d="M56.01 62.09L55.26 62.70" fill="none" stroke="#c8572a" stroke-width="2.677" stroke-linecap="round"/>
  <path d="M55.26 62.70L54.45 63.27" fill="none" stroke="#c8572a" stroke-width="2.725" stroke-linecap="round"/>
  <path d="M54.45 63.27L53.59 63.78" fill="none" stroke="#c8572a" stroke-width="2.773" stroke-linecap="round"/>
  <path d="M53.59 63.78L52.69 64.23" fill="none" stroke="#c8572a" stroke-width="2.821" stroke-linecap="round"/>
  <path d="M52.69 64.23L51.73 64.62" fill="none" stroke="#c8572a" stroke-width="2.869" stroke-linecap="round"/>
  <path d="M51.73 64.62L50.73 64.95" fill="none" stroke="#c8572a" stroke-width="2.918" stroke-linecap="round"/>
  <path d="M50.73 64.95L49.70 65.21" fill="none" stroke="#c8572a" stroke-width="2.966" stroke-linecap="round"/>
  <path d="M49.70 65.21L48.64 65.40" fill="none" stroke="#c8572a" stroke-width="3.014" stroke-linecap="round"/>
  <path d="M48.64 65.40L47.54 65.51" fill="none" stroke="#c8572a" stroke-width="3.062" stroke-linecap="round"/>
  <path d="M47.54 65.51L46.43 65.54" fill="none" stroke="#c8572a" stroke-width="3.110" stroke-linecap="round"/>
  <path d="M46.43 65.54L45.30 65.49" fill="none" stroke="#c8572a" stroke-width="3.158" stroke-linecap="round"/>
  <path d="M45.30 65.49L44.16 65.36" fill="none" stroke="#c8572a" stroke-width="3.206" stroke-linecap="round"/>
  <path d="M44.16 65.36L43.02 65.14" fill="none" stroke="#c8572a" stroke-width="3.254" stroke-linecap="round"/>
  <path d="M43.02 65.14L41.88 64.84" fill="none" stroke="#c8572a" stroke-width="3.303" stroke-linecap="round"/>
  <path d="M41.88 64.84L40.75 64.45" fill="none" stroke="#c8572a" stroke-width="3.351" stroke-linecap="round"/>
  <path d="M40.75 64.45L39.63 63.98" fill="none" stroke="#c8572a" stroke-width="3.399" stroke-linecap="round"/>
  <path d="M39.63 63.98L38.54 63.42" fill="none" stroke="#c8572a" stroke-width="3.447" stroke-linecap="round"/>
  <path d="M38.54 63.42L37.47 62.78" fill="none" stroke="#c8572a" stroke-width="3.495" stroke-linecap="round"/>
  <path d="M37.47 62.78L36.44 62.05" fill="none" stroke="#c8572a" stroke-width="3.543" stroke-linecap="round"/>
  <path d="M36.44 62.05L35.45 61.24" fill="none" stroke="#c8572a" stroke-width="3.591" stroke-linecap="round"/>
  <path d="M35.45 61.24L34.51 60.35" fill="none" stroke="#c8572a" stroke-width="3.639" stroke-linecap="round"/>
  <path d="M34.51 60.35L33.63 59.38" fill="none" stroke="#c8572a" stroke-width="3.688" stroke-linecap="round"/>
  <path d="M33.63 59.38L32.80 58.34" fill="none" stroke="#c8572a" stroke-width="3.736" stroke-linecap="round"/>
  <path d="M32.80 58.34L32.05 57.23" fill="none" stroke="#c8572a" stroke-width="3.784" stroke-linecap="round"/>
  <path d="M32.05 57.23L31.36 56.06" fill="none" stroke="#c8572a" stroke-width="3.832" stroke-linecap="round"/>
  <path d="M31.36 56.06L30.75 54.82" fill="none" stroke="#c8572a" stroke-width="3.880" stroke-linecap="round"/>
  <path d="M30.75 54.82L30.23 53.53" fill="none" stroke="#c8572a" stroke-width="3.928" stroke-linecap="round"/>
  <path d="M30.23 53.53L29.79 52.19" fill="none" stroke="#c8572a" stroke-width="3.976" stroke-linecap="round"/>
  <path d="M29.79 52.19L29.44 50.81" fill="none" stroke="#c8572a" stroke-width="4.024" stroke-linecap="round"/>
  <path d="M29.44 50.81L29.19 49.39" fill="none" stroke="#c8572a" stroke-width="4.072" stroke-linecap="round"/>
  <path d="M29.19 49.39L29.04 47.94" fill="none" stroke="#c8572a" stroke-width="4.121" stroke-linecap="round"/>
  <path d="M29.04 47.94L28.99 46.46" fill="none" stroke="#c8572a" stroke-width="4.169" stroke-linecap="round"/>
  <path d="M28.99 46.46L29.05 44.97" fill="none" stroke="#c8572a" stroke-width="4.217" stroke-linecap="round"/>
  <path d="M29.05 44.97L29.21 43.47" fill="none" stroke="#c8572a" stroke-width="4.265" stroke-linecap="round"/>
  <path d="M29.21 43.47L29.48 41.97" fill="none" stroke="#c8572a" stroke-width="4.313" stroke-linecap="round"/>
  <path d="M29.48 41.97L29.86 40.47" fill="none" stroke="#c8572a" stroke-width="4.361" stroke-linecap="round"/>
  <path d="M29.86 40.47L30.35 38.99" fill="none" stroke="#c8572a" stroke-width="4.409" stroke-linecap="round"/>
  <path d="M30.35 38.99L30.95 37.54" fill="none" stroke="#c8572a" stroke-width="4.457" stroke-linecap="round"/>
  <path d="M30.95 37.54L31.65 36.11" fill="none" stroke="#c8572a" stroke-width="4.506" stroke-linecap="round"/>
  <path d="M31.65 36.11L32.46 34.72" fill="none" stroke="#c8572a" stroke-width="4.554" stroke-linecap="round"/>
  <path d="M32.46 34.72L33.38 33.38" fill="none" stroke="#c8572a" stroke-width="4.602" stroke-linecap="round"/>
  <path d="M33.38 33.38L34.40 32.10" fill="none" stroke="#c8572a" stroke-width="4.650" stroke-linecap="round"/>
  <path d="M34.40 32.10L35.52 30.87" fill="none" stroke="#c8572a" stroke-width="4.698" stroke-linecap="round"/>
  <path d="M35.52 30.87L36.74 29.72" fill="none" stroke="#c8572a" stroke-width="4.746" stroke-linecap="round"/>
  <path d="M36.74 29.72L38.04 28.65" fill="none" stroke="#c8572a" stroke-width="4.794" stroke-linecap="round"/>
  <path d="M38.04 28.65L39.43 27.65" fill="none" stroke="#c8572a" stroke-width="4.843" stroke-linecap="round"/>
  <path d="M39.43 27.65L40.90 26.75" fill="none" stroke="#c8572a" stroke-width="4.891" stroke-linecap="round"/>
  <path d="M40.90 26.75L42.45 25.95" fill="none" stroke="#c8572a" stroke-width="4.939" stroke-linecap="round"/>
  <path d="M42.45 25.95L44.06 25.25" fill="none" stroke="#c8572a" stroke-width="4.987" stroke-linecap="round"/>
  <path d="M44.06 25.25L45.73 24.66" fill="none" stroke="#c8572a" stroke-width="5.035" stroke-linecap="round"/>
  <path d="M45.73 24.66L47.46 24.19" fill="none" stroke="#c8572a" stroke-width="5.083" stroke-linecap="round"/>
  <path d="M47.46 24.19L49.23 23.83" fill="none" stroke="#c8572a" stroke-width="5.131" stroke-linecap="round"/>
  <path d="M49.23 23.83L51.04 23.60" fill="none" stroke="#c8572a" stroke-width="5.179" stroke-linecap="round"/>
  <path d="M51.04 23.60L52.87 23.49" fill="none" stroke="#c8572a" stroke-width="5.227" stroke-linecap="round"/>
  <path d="M52.87 23.49L54.73 23.51" fill="none" stroke="#c8572a" stroke-width="5.276" stroke-linecap="round"/>
  <path d="M54.73 23.51L56.60 23.66" fill="none" stroke="#c8572a" stroke-width="5.324" stroke-linecap="round"/>
  <path d="M56.60 23.66L58.47 23.94" fill="none" stroke="#c8572a" stroke-width="5.372" stroke-linecap="round"/>
  <path d="M58.47 23.94L60.33 24.36" fill="none" stroke="#c8572a" stroke-width="5.420" stroke-linecap="round"/>
  <path d="M60.33 24.36L62.17 24.91" fill="none" stroke="#c8572a" stroke-width="5.468" stroke-linecap="round"/>
  <path d="M62.17 24.91L63.99 25.59" fill="none" stroke="#c8572a" stroke-width="5.516" stroke-linecap="round"/>
  <path d="M63.99 25.59L65.76 26.41" fill="none" stroke="#c8572a" stroke-width="5.564" stroke-linecap="round"/>
  <path d="M65.76 26.41L67.50 27.35" fill="none" stroke="#c8572a" stroke-width="5.612" stroke-linecap="round"/>
  <path d="M67.50 27.35L69.17 28.43" fill="none" stroke="#c8572a" stroke-width="5.661" stroke-linecap="round"/>
  <path d="M69.17 28.43L70.78 29.62" fill="none" stroke="#c8572a" stroke-width="5.709" stroke-linecap="round"/>
  <path d="M70.78 29.62L72.32 30.94" fill="none" stroke="#c8572a" stroke-width="5.757" stroke-linecap="round"/>
  <path d="M72.32 30.94L73.77 32.37" fill="none" stroke="#c8572a" stroke-width="5.805" stroke-linecap="round"/>
  <path d="M73.77 32.37L75.13 33.91" fill="none" stroke="#c8572a" stroke-width="5.853" stroke-linecap="round"/>
  <path d="M75.13 33.91L76.39 35.56" fill="none" stroke="#c8572a" stroke-width="5.901" stroke-linecap="round"/>
  <path d="M76.39 35.56L77.54 37.30" fill="none" stroke="#c8572a" stroke-width="5.949" stroke-linecap="round"/>
  <path d="M77.54 37.30L78.57 39.14" fill="none" stroke="#c8572a" stroke-width="5.998" stroke-linecap="round"/>
  <path d="M78.57 39.14L79.49 41.06" fill="none" stroke="#c8572a" stroke-width="6.046" stroke-linecap="round"/>
  <path d="M79.49 41.06L80.27 43.05" fill="none" stroke="#c8572a" stroke-width="6.094" stroke-linecap="round"/>
  <path d="M80.27 43.05L80.91 45.10" fill="none" stroke="#c8572a" stroke-width="6.142" stroke-linecap="round"/>
  <path d="M80.91 45.10L81.42 47.22" fill="none" stroke="#c8572a" stroke-width="6.190" stroke-linecap="round"/>
  <path d="M81.42 47.22L81.78 49.38" fill="none" stroke="#c8572a" stroke-width="6.238" stroke-linecap="round"/>
  <path d="M81.78 49.38L81.99 51.57" fill="none" stroke="#c8572a" stroke-width="6.286" stroke-linecap="round"/>
  <path d="M81.99 51.57L82.05 53.79" fill="none" stroke="#c8572a" stroke-width="6.334" stroke-linecap="round"/>
  <path d="M82.05 53.79L81.95 56.03" fill="none" stroke="#c8572a" stroke-width="6.382" stroke-linecap="round"/>
  <path d="M81.95 56.03L81.70 58.27" fill="none" stroke="#c8572a" stroke-width="6.431" stroke-linecap="round"/>
  <path d="M81.70 58.27L81.29 60.51" fill="none" stroke="#c8572a" stroke-width="6.479" stroke-linecap="round"/>
  <path d="M81.29 60.51L80.72 62.72" fill="none" stroke="#c8572a" stroke-width="6.527" stroke-linecap="round"/>
  <path d="M80.72 62.72L79.99 64.91" fill="none" stroke="#c8572a" stroke-width="6.575" stroke-linecap="round"/>
  <path d="M79.99 64.91L79.11 67.06" fill="none" stroke="#c8572a" stroke-width="6.623" stroke-linecap="round"/>
  <path d="M79.11 67.06L78.07 69.16" fill="none" stroke="#c8572a" stroke-width="6.671" stroke-linecap="round"/>
  <path d="M78.07 69.16L76.88 71.19" fill="none" stroke="#c8572a" stroke-width="6.719" stroke-linecap="round"/>
  <path d="M76.88 71.19L75.54 73.15" fill="none" stroke="#c8572a" stroke-width="6.768" stroke-linecap="round"/>
  <path d="M75.54 73.15L74.06 75.02" fill="none" stroke="#c8572a" stroke-width="6.816" stroke-linecap="round"/>
  <path d="M74.06 75.02L72.44 76.80" fill="none" stroke="#c8572a" stroke-width="6.864" stroke-linecap="round"/>
  <path d="M72.44 76.80L70.69 78.48" fill="none" stroke="#c8572a" stroke-width="6.912" stroke-linecap="round"/>
  <path d="M70.69 78.48L68.82 80.04" fill="none" stroke="#c8572a" stroke-width="6.960" stroke-linecap="round"/>
  <path d="M68.82 80.04L66.82 81.47" fill="none" stroke="#c8572a" stroke-width="7.008" stroke-linecap="round"/>
  <path d="M66.82 81.47L64.72 82.78" fill="none" stroke="#c8572a" stroke-width="7.056" stroke-linecap="round"/>
  <path d="M64.72 82.78L62.52 83.94" fill="none" stroke="#c8572a" stroke-width="7.104" stroke-linecap="round"/>
  <path d="M62.52 83.94L60.23 84.95" fill="none" stroke="#c8572a" stroke-width="7.152" stroke-linecap="round"/>
  <path d="M60.23 84.95L57.86 85.81" fill="none" stroke="#c8572a" stroke-width="7.201" stroke-linecap="round"/>
  <path d="M57.86 85.81L55.42 86.51" fill="none" stroke="#c8572a" stroke-width="7.249" stroke-linecap="round"/>
  <path d="M55.42 86.51L52.91 87.04" fill="none" stroke="#c8572a" stroke-width="7.297" stroke-linecap="round"/>
  <path d="M52.91 87.04L50.37 87.39" fill="none" stroke="#c8572a" stroke-width="7.345" stroke-linecap="round"/>
  <path d="M50.37 87.39L47.78 87.57" fill="none" stroke="#c8572a" stroke-width="7.393" stroke-linecap="round"/>
  <path d="M47.78 87.57L45.18 87.57" fill="none" stroke="#c8572a" stroke-width="7.441" stroke-linecap="round"/>
  <path d="M45.18 87.57L42.56 87.39" fill="none" stroke="#c8572a" stroke-width="7.489" stroke-linecap="round"/>
  <path d="M42.56 87.39L39.95 87.03" fill="none" stroke="#c8572a" stroke-width="7.537" stroke-linecap="round"/>
  <path d="M39.95 87.03L37.35 86.48" fill="none" stroke="#c8572a" stroke-width="7.586" stroke-linecap="round"/>
  <path d="M37.35 86.48L34.78 85.75" fill="none" stroke="#c8572a" stroke-width="7.634" stroke-linecap="round"/>
  <path d="M34.78 85.75L32.25 84.84" fill="none" stroke="#c8572a" stroke-width="7.682" stroke-linecap="round"/>
  <path d="M32.25 84.84L29.77 83.75" fill="none" stroke="#c8572a" stroke-width="7.730" stroke-linecap="round"/>
  <path d="M29.77 83.75L27.36 82.48" fill="none" stroke="#c8572a" stroke-width="7.778" stroke-linecap="round"/>
  <path d="M27.36 82.48L25.03 81.04" fill="none" stroke="#c8572a" stroke-width="7.826" stroke-linecap="round"/>
  <path d="M25.03 81.04L22.80 79.43" fill="none" stroke="#c8572a" stroke-width="7.874" stroke-linecap="round"/>
  <path d="M22.80 79.43L20.66 77.66" fill="none" stroke="#c8572a" stroke-width="7.923" stroke-linecap="round"/>
  <path d="M20.66 77.66L18.64 75.73" fill="none" stroke="#c8572a" stroke-width="7.971" stroke-linecap="round"/>
  <path d="M18.64 75.73L16.75 73.66" fill="none" stroke="#c8572a" stroke-width="8.019" stroke-linecap="round"/>
  <path d="M16.75 73.66L15.00 71.45" fill="none" stroke="#c8572a" stroke-width="8.067" stroke-linecap="round"/>
  <path d="M15.00 71.45L13.39 69.11" fill="none" stroke="#c8572a" stroke-width="8.115" stroke-linecap="round"/>
  <path d="M13.39 69.11L11.94 66.65" fill="none" stroke="#c8572a" stroke-width="8.163" stroke-linecap="round"/>
  <path d="M11.94 66.65L10.66 64.08" fill="none" stroke="#c8572a" stroke-width="8.211" stroke-linecap="round"/>
  <path d="M10.66 64.08L9.55 61.41" fill="none" stroke="#c8572a" stroke-width="8.259" stroke-linecap="round"/>
  <path d="M9.55 61.41L8.63 58.65" fill="none" stroke="#c8572a" stroke-width="8.308" stroke-linecap="round"/>
  <path d="M8.63 58.65L7.89 55.82" fill="none" stroke="#c8572a" stroke-width="8.356" stroke-linecap="round"/>
  <path d="M7.89 55.82L7.34 52.94" fill="none" stroke="#c8572a" stroke-width="8.404" stroke-linecap="round"/>
  <path d="M7.34 52.94L7.00 50.00" fill="none" stroke="#c8572a" stroke-width="8.452" stroke-linecap="round"/>
  </g>
  <text x="140" y="70" font-family="Georgia,'Palatino Linotype',serif" font-size="42" fill="#1a1008" letter-spacing="1.5" dominant-baseline="middle">momentum</text>
</svg>