<svg xmlns="http://www.w3.org/2000/svg" width="400" height="400" viewBox="0 0 400 400">
  <title>momentum · icon mark</title>
  <path d="M200.00 184.00L201.17 183.07" fill="none" stroke="#c8572a" stroke-width="3.200" stroke-linecap="round"/>
  <path d="M201.17 183.07L202.46 182.22" fill="none" stroke="#c8572a" stroke-width="3.393" stroke-linecap="round"/>
  <path d="M202.46 182.22L203.87 181.48" fill="none" stroke="#c8572a" stroke-width="3.585" stroke-linecap="round"/>
  <path d="M203.87 181.48L205.40 180.85" fill="none" stroke="#c8572a" stroke-width="3.778" stroke-linecap="round"/>
  <path d="M205.40 180.85L207.03 180.35" fill="none" stroke="#c8572a" stroke-width="3.970" stroke-linecap="round"/>
  <path d="M207.03 180.35L208.76 179.98" fill="none" stroke="#c8572a" stroke-width="4.163" stroke-linecap="round"/>
  <path d="M208.76 179.98L210.56 179.77" fill="none" stroke="#c8572a" stroke-width="4.355" stroke-linecap="round"/>
  <path d="M210.56 179.77L212.44 179.71" fill="none" stroke="#c8572a" stroke-width="4.548" stroke-linecap="round"/>
  <path d="M212.44 179.71L214.36 179.81" fill="none" stroke="#c8572a" stroke-width="4.740" stroke-linecap="round"/>
  <path d="M214.36 179.81L216.34 180.09" fill="none" stroke="#c8572a" stroke-width="4.933" stroke-linecap="round"/>
  <path d="M216.34 180.09L218.33 180.55" fill="none" stroke="#c8572a" stroke-width="5.125" stroke-linecap="round"/>
  <path d="M218.33 180.55L220.34 181.20" fill="none" stroke="#c8572a" stroke-width="5.318" stroke-linecap="round"/>
  <path d="M220.34 181.20L222.34 182.03" fill="none" stroke="#c8572a" stroke-width="5.510" stroke-linecap="round"/>
  <path d="M222.34 182.03L224.32 183.05" fill="none" stroke="#c8572a" stroke-width="5.703" stroke-linecap="round"/>
  <path d="M224.32 183.05L226.27 184.26" fill="none" stroke="#c8572a" stroke-width="5.895" stroke-linecap="round"/>
  <path d="M226.27 184.26L228.16 185.65" fill="none" stroke="#c8572a" stroke-width="6.088" stroke-linecap="round"/>
  <path d="M228.16 185.65L229.97 187.24" fill="none" stroke="#c8572a" stroke-width="6.280" stroke-linecap="round"/>
  <path d="M229.97 187.24L231.70 189.01" fill="none" stroke="#c8572a" stroke-width="6.473" stroke-linecap="round"/>
  <path d="M231.70 189.01L233.32 190.96" fill="none" stroke="#c8572a" stroke-width="6.665" stroke-linecap="round"/>
  <path d="M233.32 190.96L234.82 193.07" fill="none" stroke="#c8572a" stroke-width="6.857" stroke-linecap="round"/>
  <path d="M234.82 193.07L236.18 195.36" fill="none" stroke="#c8572a" stroke-width="7.050" stroke-linecap="round"/>
  <path d="M236.18 195.36L237.39 197.80" fill="none" stroke="#c8572a" stroke-width="7.243" stroke-linecap="round"/>
  <path d="M237.39 197.80L238.42 200.38" fill="none" stroke="#c8572a" stroke-width="7.435" stroke-linecap="round"/>
  <path d="M238.42 200.38L239.28 203.09" fill="none" stroke="#c8572a" stroke-width="7.627" stroke-linecap="round"/>
  <path d="M239.28 203.09L239.94 205.92" fill="none" stroke="#c8572a" stroke-width="7.820" stroke-linecap="round"/>
  <path d="M239.94 205.92L240.39 208.86" fill="none" stroke="#c8572a" stroke-width="8.012" stroke-linecap="round"/>
  <path d="M240.39 208.86L240.62 211.89" fill="none" stroke="#c8572a" stroke-width="8.205" stroke-linecap="round"/>
  <path d="M240.62 211.89L240.62 214.99" fill="none" stroke="#c8572a" stroke-width="8.398" stroke-linecap="round"/>
  <path d="M240.62 214.99L240.39 218.14" fill="none" stroke="#c8572a" stroke-width="8.590" stroke-linecap="round"/>
  <path d="M240.39 218.14L239.91 221.33" fill="none" stroke="#c8572a" stroke-width="8.782" stroke-linecap="round"/>
  <path d="M239.91 221.33L239.17 224.54" fill="none" stroke="#c8572a" stroke-width="8.975" stroke-linecap="round"/>
  <path d="M239.17 224.54L238.19 227.74" fill="none" stroke="#c8572a" stroke-width="9.168" stroke-linecap="round"/>
  <path d="M238.19 227.74L236.94 230.93" fill="none" stroke="#c8572a" stroke-width="9.360" stroke-linecap="round"/>
  <path d="M236.94 230.93L235.43 234.07" fill="none" stroke="#c8572a" stroke-width="9.553" stroke-linecap="round"/>
  <path d="M235.43 234.07L233.66 237.14" fill="none" stroke="#c8572a" stroke-width="9.745" stroke-linecap="round"/>
  <path d="M233.66 237.14L231.64 240.13" fill="none" stroke="#c8572a" stroke-width="9.938" stroke-linecap="round"/>
  <path d="M231.64 240.13L229.36 243.01" fill="none" stroke="#c8572a" stroke-width="10.130" stroke-linecap="round"/>
  <path d="M229.36 243.01L226.83 245.77" fill="none" stroke="#c8572a" stroke-width="10.323" stroke-linecap="round"/>
  <path d="M226.83 245.77L224.05 248.38" fill="none" stroke="#c8572a" stroke-width="10.515" stroke-linecap="round"/>
  <path d="M224.05 248.38L221.05 250.81" fill="none" stroke="#c8572a" stroke-width="10.707" stroke-linecap="round"/>
  <path d="M221.05 250.81L217.82 253.06" fill="none" stroke="#c8572a" stroke-width="10.900" stroke-linecap="round"/>
  <path d="M217.82 253.06L214.38 255.10" fill="none" stroke="#c8572a" stroke-width="11.092" stroke-linecap="round"/>
  <path d="M214.38 255.10L210.74 256.92" fill="none" stroke="#c8572a" stroke-width="11.285" stroke-linecap="round"/>
  <path d="M210.74 256.92L206.92 258.49" fill="none" stroke="#c8572a" stroke-width="11.477" stroke-linecap="round"/>
  <path d="M206.92 258.49L202.94 259.80" fill="none" stroke="#c8572a" stroke-width="11.670" stroke-linecap="round"/>
  <path d="M202.94 259.80L198.81 260.84" fill="none" stroke="#c8572a" stroke-width="11.863" stroke-linecap="round"/>
  <path d="M198.81 260.84L194.54 261.58" fill="none" stroke="#c8572a" stroke-width="12.055" stroke-linecap="round"/>
  <path d="M194.54 261.58L190.18 262.03" fill="none" stroke="#c8572a" stroke-width="12.248" stroke-linecap="round"/>
  <path d="M190.18 262.03L185.72 262.16" fill="none" stroke="#c8572a" stroke-width="12.440" stroke-linecap="round"/>
  <path d="M185.72 262.16L181.20 261.96" fill="none" stroke="#c8572a" stroke-width="12.633" stroke-linecap="round"/>
  <path d="M181.20 261.96L176.65 261.44" fill="none" stroke="#c8572a" stroke-width="12.825" stroke-linecap="round"/>
  <path d="M176.65 261.44L172.08 260.57" fill="none" stroke="#c8572a" stroke-width="13.017" stroke-linecap="round"/>
  <path d="M172.08 260.57L167.51 259.37" fill="none" stroke="#c8572a" stroke-width="13.210" stroke-linecap="round"/>
  <path d="M167.51 259.37L162.99 257.82" fill="none" stroke="#c8572a" stroke-width="13.402" stroke-linecap="round"/>
  <path d="M162.99 257.82L158.52 255.92" fill="none" stroke="#c8572a" stroke-width="13.595" stroke-linecap="round"/>
  <path d="M158.52 255.92L154.15 253.68" fill="none" stroke="#c8572a" stroke-width="13.788" stroke-linecap="round"/>
  <path d="M154.15 253.68L149.89 251.11" fill="none" stroke="#c8572a" stroke-width="13.980" stroke-linecap="round"/>
  <path d="M149.89 251.11L145.77 248.19" fill="none" stroke="#c8572a" stroke-width="14.172" stroke-linecap="round"/>
  <path d="M145.77 248.19L141.82 244.95" fill="none" stroke="#c8572a" stroke-width="14.365" stroke-linecap="round"/>
  <path d="M141.82 244.95L138.06 241.39" fill="none" stroke="#c8572a" stroke-width="14.558" stroke-linecap="round"/>
  <path d="M138.06 241.39L134.51 237.52" fill="none" stroke="#c8572a" stroke-width="14.750" stroke-linecap="round"/>
  <path d="M134.51 237.52L131.21 233.36" fill="none" stroke="#c8572a" stroke-width="14.942" stroke-linecap="round"/>
  <path d="M131.21 233.36L128.18 228.93" fill="none" stroke="#c8572a" stroke-width="15.135" stroke-linecap="round"/>
  <path d="M128.18 228.93L125.44 224.23" fill="none" stroke="#c8572a" stroke-width="15.328" stroke-linecap="round"/>
  <path d="M125.44 224.23L123.00 219.29" fill="none" stroke="#c8572a" stroke-width="15.520" stroke-linecap="round"/>
  <path d="M123.00 219.29L120.90 214.13" fill="none" stroke="#c8572a" stroke-width="15.713" stroke-linecap="round"/>
  <path d="M120.90 214.13L119.15 208.77" fill="none" stroke="#c8572a" stroke-width="15.905" stroke-linecap="round"/>
  <path d="M119.15 208.77L117.76 203.23" fill="none" stroke="#c8572a" stroke-width="16.098" stroke-linecap="round"/>
  <path d="M117.76 203.23L116.76 197.55" fill="none" stroke="#c8572a" stroke-width="16.290" stroke-linecap="round"/>
  <path d="M116.76 197.55L116.16 191.74" fill="none" stroke="#c8572a" stroke-width="16.483" stroke-linecap="round"/>
  <path d="M116.16 191.74L115.96 185.84" fill="none" stroke="#c8572a" stroke-width="16.675" stroke-linecap="round"/>
  <path d="M115.96 185.84L116.18 179.88" fill="none" stroke="#c8572a" stroke-width="16.867" stroke-linecap="round"/>
  <path d="M116.18 179.88L116.83 173.88" fill="none" stroke="#c8572a" stroke-width="17.060" stroke-linecap="round"/>
  <path d="M116.83 173.88L117.91 167.87" fill="none" stroke="#c8572a" stroke-width="17.253" stroke-linecap="round"/>
  <path d="M117.91 167.87L119.43 161.89" fill="none" stroke="#c8572a" stroke-width="17.445" stroke-linecap="round"/>
  <path d="M119.43 161.89L121.39 155.98" fill="none" stroke="#c8572a" stroke-width="17.637" stroke-linecap="round"/>
  <path d="M121.39 155.98L123.78 150.15" fill="none" stroke="#c8572a" stroke-width="17.830" stroke-linecap="round"/>
  <path d="M123.78 150.15L126.61 144.44" fill="none" stroke="#c8572a" stroke-width="18.023" stroke-linecap="round"/>
  <path d="M126.61 144.44L129.86 138.89" fill="none" stroke="#c8572a" stroke-width="18.215" stroke-linecap="round"/>
  <path d="M129.86 138.89L133.53 133.53" fill="none" stroke="#c8572a" stroke-width="18.408" stroke-linecap="round"/>
  <path d="M133.53 133.53L137.61 128.39" fill="none" stroke="#c8572a" stroke-width="18.600" stroke-linecap="round"/>
  <path d="M137.61 128.39L142.09 123.50" fill="none" stroke="#c8572a" stroke-width="18.793" stroke-linecap="round"/>
  <path d="M142.09 123.50L146.95 118.89" fill="none" stroke="#c8572a" stroke-width="18.985" stroke-linecap="round"/>
  <path d="M146.95 118.89L152.16 114.58" fill="none" stroke="#c8572a" stroke-width="19.178" stroke-linecap="round"/>
  <path d="M152.16 114.58L157.73 110.62" fill="none" stroke="#c8572a" stroke-width="19.370" stroke-linecap="round"/>
  <path d="M157.73 110.62L163.61 107.02" fill="none" stroke="#c8572a" stroke-width="19.562" stroke-linecap="round"/>
  <path d="M163.61 107.02L169.79 103.81" fill="none" stroke="#c8572a" stroke-width="19.755" stroke-linecap="round"/>
  <path d="M169.79 103.81L176.24 101.01" fill="none" stroke="#c8572a" stroke-width="19.947" stroke-linecap="round"/>
  <path d="M176.24 101.01L182.93 98.65" fill="none" stroke="#c8572a" stroke-width="20.140" stroke-linecap="round"/>
  <path d="M182.93 98.65L189.83 96.75" fill="none" stroke="#c8572a" stroke-width="20.332" stroke-linecap="round"/>
  <path d="M189.83 96.75L196.92 95.32" fill="none" stroke="#c8572a" stroke-width="20.525" stroke-linecap="round"/>
  <path d="M196.92 95.32L204.15 94.38" fill="none" stroke="#c8572a" stroke-width="20.717" stroke-linecap="round"/>
  <path d="M204.15 94.38L211.50 93.95" fill="none" stroke="#c8572a" stroke-width="20.910" stroke-linecap="round"/>
  <path d="M211.50 93.95L218.92 94.03" fill="none" stroke="#c8572a" stroke-width="21.103" stroke-linecap="round"/>
  <path d="M218.92 94.03L226.39 94.63" fill="none" stroke="#c8572a" stroke-width="21.295" stroke-linecap="round"/>
  <path d="M226.39 94.63L233.87 95.76" fill="none" stroke="#c8572a" stroke-width="21.488" stroke-linecap="round"/>
  <path d="M233.87 95.76L241.31 97.43" fill="none" stroke="#c8572a" stroke-width="21.680" stroke-linecap="round"/>
  <path d="M241.31 97.43L248.68 99.63" fill="none" stroke="#c8572a" stroke-width="21.872" stroke-linecap="round"/>
  <path d="M248.68 99.63L255.94 102.37" fill="none" stroke="#c8572a" stroke-width="22.065" stroke-linecap="round"/>
  <path d="M255.94 102.37L263.06 105.63" fill="none" stroke="#c8572a" stroke-width="22.258" stroke-linecap="round"/>
  <path d="M263.06 105.63L269.98 109.41" fill="none" stroke="#c8572a" stroke-width="22.450" stroke-linecap="round"/>
  <path d="M269.98 109.41L276.69 113.70" fill="none" stroke="#c8572a" stroke-width="22.642" stroke-linecap="round"/>
  <path d="M276.69 113.70L283.13 118.49" fill="none" stroke="#c8572a" stroke-width="22.835" stroke-linecap="round"/>
  <path d="M283.13 118.49L289.27 123.75" fill="none" stroke="#c8572a" stroke-width="23.027" stroke-linecap="round"/>
  <path d="M289.27 123.75L295.08 129.48" fill="none" stroke="#c8572a" stroke-width="23.220" stroke-linecap="round"/>
  <path d="M295.08 129.48L300.52 135.65" fill="none" stroke="#c8572a" stroke-width="23.413" stroke-linecap="round"/>
  <path d="M300.52 135.65L305.56 142.24" fill="none" stroke="#c8572a" stroke-width="23.605" stroke-linecap="round"/>
  <path d="M305.56 142.24L310.16 149.22" fill="none" stroke="#c8572a" stroke-width="23.797" stroke-linecap="round"/>
  <path d="M310.16 149.22L314.30 156.55" fill="none" stroke="#c8572a" stroke-width="23.990" stroke-linecap="round"/>
  <path d="M314.30 156.55L317.94 164.22" fill="none" stroke="#c8572a" stroke-width="24.183" stroke-linecap="round"/>
  <path d="M317.94 164.22L321.07 172.19" fill="none" stroke="#c8572a" stroke-width="24.375" stroke-linecap="round"/>
  <path d="M321.07 172.19L323.66 180.41" fill="none" stroke="#c8572a" stroke-width="24.567" stroke-linecap="round"/>
  <path d="M323.66 180.41L325.68 188.87" fill="none" stroke="#c8572a" stroke-width="24.760" stroke-linecap="round"/>
  <path d="M325.68 188.87L327.13 197.50" fill="none" stroke="#c8572a" stroke-width="24.953" stroke-linecap="round"/>
  <path d="M327.13 197.50L327.97 206.29" fill="none" stroke="#c8572a" stroke-width="25.145" stroke-linecap="round"/>
  <path d="M327.97 206.29L328.21 215.17" fill="none" stroke="#c8572a" stroke-width="25.337" stroke-linecap="round"/>
  <path d="M328.21 215.17L327.82 224.12" fill="none" stroke="#c8572a" stroke-width="25.530" stroke-linecap="round"/>
  <path d="M327.82 224.12L326.80 233.09" fill="none" stroke="#c8572a" stroke-width="25.723" stroke-linecap="round"/>
  <path d="M326.80 233.09L325.16 242.03" fill="none" stroke="#c8572a" stroke-width="25.915" stroke-linecap="round"/>
  <path d="M325.16 242.03L322.88 250.90" fill="none" stroke="#c8572a" stroke-width="26.108" stroke-linecap="round"/>
  <path d="M322.88 250.90L319.96 259.65" fill="none" stroke="#c8572a" stroke-width="26.300" stroke-linecap="round"/>
  <path d="M319.96 259.65L316.43 268.24" fill="none" stroke="#c8572a" stroke-width="26.492" stroke-linecap="round"/>
  <path d="M316.43 268.24L312.27 276.62" fill="none" stroke="#c8572a" stroke-width="26.685" stroke-linecap="round"/>
  <path d="M312.27 276.62L307.51 284.75" fill="none" stroke="#c8572a" stroke-width="26.878" stroke-linecap="round"/>
  <path d="M307.51 284.75L302.16 292.59" fill="none" stroke="#c8572a" stroke-width="27.070" stroke-linecap="round"/>
  <path d="M302.16 292.59L296.24 300.09" fill="none" stroke="#c8572a" stroke-width="27.262" stroke-linecap="round"/>
  <path d="M296.24 300.09L289.76 307.21" fill="none" stroke="#c8572a" stroke-width="27.455" stroke-linecap="round"/>
  <path d="M289.76 307.21L282.76 313.91" fill="none" stroke="#c8572a" stroke-width="27.647" stroke-linecap="round"/>
  <path d="M282.76 313.91L275.26 320.15" fill="none" stroke="#c8572a" stroke-width="27.840" stroke-linecap="round"/>
  <path d="M275.26 320.15L267.29 325.89" fill="none" stroke="#c8572a" stroke-width="28.032" stroke-linecap="round"/>
  <path d="M267.29 325.89L258.89 331.11" fill="none" stroke="#c8572a" stroke-width="28.225" stroke-linecap="round"/>
  <path d="M258.89 331.11L250.08 335.76" fill="none" stroke="#c8572a" stroke-width="28.418" stroke-linecap="round"/>
  <path d="M250.08 335.76L240.92 339.81" fill="none" stroke="#c8572a" stroke-width="28.610" stroke-linecap="round"/>
  <path d="M240.92 339.81L231.43 343.24" fill="none" stroke="#c8572a" stroke-width="28.803" stroke-linecap="round"/>
  <path d="M231.43 343.24L221.66 346.03" fill="none" stroke="#c8572a" stroke-width="28.995" stroke-linecap="round"/>
  <path d="M221.66 346.03L211.66 348.14" fill="none" stroke="#c8572a" stroke-width="29.188" stroke-linecap="round"/>
  <path d="M211.66 348.14L201.47 349.57" fill="none" stroke="#c8572a" stroke-width="29.380" stroke-linecap="round"/>
  <path d="M201.47 349.57L191.14 350.29" fill="none" stroke="#c8572a" stroke-width="29.572" stroke-linecap="round"/>
  <path d="M191.14 350.29L180.71 350.29" fill="none" stroke="#c8572a" stroke-width="29.765" stroke-linecap="round"/>
  <path d="M180.71 350.29L170.25 349.57" fill="none" stroke="#c8572a" stroke-width="29.957" stroke-linecap="round"/>
  <path d="M170.25 349.57L159.79 348.11" fill="none" stroke="#c8572a" stroke-width="30.150" stroke-linecap="round"/>
  <path d="M159.79 348.11L149.40 345.93" fill="none" stroke="#c8572a" stroke-width="30.342" stroke-linecap="round"/>
  <path d="M149.40 345.93L139.11 343.00" fill="none" stroke="#c8572a" stroke-width="30.535" stroke-linecap="round"/>
  <path d="M139.11 343.00L129.00 339.35" fill="none" stroke="#c8572a" stroke-width="30.728" stroke-linecap="round"/>
  <path d="M129.00 339.35L119.09 334.99" fill="none" stroke="#c8572a" stroke-width="30.920" stroke-linecap="round"/>
  <path d="M119.09 334.99L109.46 329.91" fill="none" stroke="#c8572a" stroke-width="31.113" stroke-linecap="round"/>
  <path d="M109.46 329.91L100.14 324.15" fill="none" stroke="#c8572a" stroke-width="31.305" stroke-linecap="round"/>
  <path d="M100.14 324.15L91.19 317.71" fill="none" stroke="#c8572a" stroke-width="31.497" stroke-linecap="round"/>
  <path d="M91.19 317.71L82.65 310.63" fill="none" stroke="#c8572a" stroke-width="31.690" stroke-linecap="round"/>
  <path d="M82.65 310.63L74.58 302.93" fill="none" stroke="#c8572a" stroke-width="31.883" stroke-linecap="round"/>
  <path d="M74.58 302.93L67.01 294.64" fill="none" stroke="#c8572a" stroke-width="32.075" stroke-linecap="round"/>
  <path d="M67.01 294.64L60.00 285.79" fill="none" stroke="#c8572a" stroke-width="32.267" stroke-linecap="round"/>
  <path d="M60.00 285.79L53.57 276.43" fill="none" stroke="#c8572a" stroke-width="32.460" stroke-linecap="round"/>
  <path d="M53.57 276.43L47.78 266.58" fill="none" stroke="#c8572a" stroke-width="32.653" stroke-linecap="round"/>
  <path d="M47.78 266.58L42.64 256.30" fill="none" stroke="#c8572a" stroke-width="32.845" stroke-linecap="round"/>
  <path d="M42.64 256.30L38.21 245.63" fill="none" stroke="#c8572a" stroke-width="33.038" stroke-linecap="round"/>
  <path d="M38.21 245.63L34.51 234.61" fill="none" stroke="#c8572a" stroke-width="33.230" stroke-linecap="round"/>
  <path d="M34.51 234.61L31.55 223.30" fill="none" stroke="#c8572a" stroke-width="33.422" stroke-linecap="round"/>
  <path d="M31.55 223.30L29.38 211.74" fill="none" stroke="#c8572a" stroke-width="33.615" stroke-linecap="round"/>
  <path d="M29.38 211.74L28.00 200.00" fill="none" stroke="#c8572a" stroke-width="33.808" stroke-linecap="round"/>
</svg>