<svg xmlns="http://www.w3.org/2000/svg" width="512" height="512" viewBox="0 0 512 512">
  <title>momentum · app icon</title>
  <rect width="512" height="512" fill="#140e08" rx="113"/>
  <g transform="translate(81.9,81.9)">
  <path d="M174.08 160.15L175.09 159.34" fill="none" stroke="#d4673a" stroke-width="3.482" stroke-linecap="round"/>
  <path d="M175.09 159.34L176.22 158.60" fill="none" stroke="#d4673a" stroke-width="3.638" stroke-linecap="round"/>
  <path d="M176.22 158.60L177.45 157.96" fill="none" stroke="#d4673a" stroke-width="3.795" stroke-linecap="round"/>
  <path d="M177.45 157.96L178.78 157.41" fill="none" stroke="#d4673a" stroke-width="3.952" stroke-linecap="round"/>
  <path d="M178.78 157.41L180.20 156.97" fill="none" stroke="#d4673a" stroke-width="4.108" stroke-linecap="round"/>
  <path d="M180.20 156.97L181.70 156.66" fill="none" stroke="#d4673a" stroke-width="4.265" stroke-linecap="round"/>
  <path d="M181.70 156.66L183.27 156.47" fill="none" stroke="#d4673a" stroke-width="4.422" stroke-linecap="round"/>
  <path d="M183.27 156.47L184.90 156.42" fill="none" stroke="#d4673a" stroke-width="4.578" stroke-linecap="round"/>
  <path d="M184.90 156.42L186.58 156.51" fill="none" stroke="#d4673a" stroke-width="4.735" stroke-linecap="round"/>
  <path d="M186.58 156.51L188.30 156.75" fill="none" stroke="#d4673a" stroke-width="4.892" stroke-linecap="round"/>
  <path d="M188.30 156.75L190.04 157.15" fill="none" stroke="#d4673a" stroke-width="5.048" stroke-linecap="round"/>
  <path d="M190.04 157.15L191.78 157.71" fill="none" stroke="#d4673a" stroke-width="5.205" stroke-linecap="round"/>
  <path d="M191.78 157.71L193.53 158.44" fill="none" stroke="#d4673a" stroke-width="5.362" stroke-linecap="round"/>
  <path d="M193.53 158.44L195.25 159.32" fill="none" stroke="#d4673a" stroke-width="5.518" stroke-linecap="round"/>
  <path d="M195.25 159.32L196.94 160.38" fill="none" stroke="#d4673a" stroke-width="5.675" stroke-linecap="round"/>
  <path d="M196.94 160.38L198.59 161.59" fill="none" stroke="#d4673a" stroke-width="5.832" stroke-linecap="round"/>
  <path d="M198.59 161.59L200.17 162.97" fill="none" stroke="#d4673a" stroke-width="5.988" stroke-linecap="round"/>
  <path d="M200.17 162.97L201.67 164.51" fill="none" stroke="#d4673a" stroke-width="6.145" stroke-linecap="round"/>
  <path d="M201.67 164.51L203.08 166.21" fill="none" stroke="#d4673a" stroke-width="6.302" stroke-linecap="round"/>
  <path d="M203.08 166.21L204.39 168.05" fill="none" stroke="#d4673a" stroke-width="6.458" stroke-linecap="round"/>
  <path d="M204.39 168.05L205.57 170.04" fill="none" stroke="#d4673a" stroke-width="6.615" stroke-linecap="round"/>
  <path d="M205.57 170.04L206.62 172.16" fill="none" stroke="#d4673a" stroke-width="6.772" stroke-linecap="round"/>
  <path d="M206.62 172.16L207.52 174.41" fill="none" stroke="#d4673a" stroke-width="6.928" stroke-linecap="round"/>
  <path d="M207.52 174.41L208.27 176.77" fill="none" stroke="#d4673a" stroke-width="7.085" stroke-linecap="round"/>
  <path d="M208.27 176.77L208.84 179.24" fill="none" stroke="#d4673a" stroke-width="7.242" stroke-linecap="round"/>
  <path d="M208.84 179.24L209.23 181.79" fill="none" stroke="#d4673a" stroke-width="7.398" stroke-linecap="round"/>
  <path d="M209.23 181.79L209.44 184.43" fill="none" stroke="#d4673a" stroke-width="7.555" stroke-linecap="round"/>
  <path d="M209.44 184.43L209.44 187.12" fill="none" stroke="#d4673a" stroke-width="7.712" stroke-linecap="round"/>
  <path d="M209.44 187.12L209.23 189.87" fill="none" stroke="#d4673a" stroke-width="7.868" stroke-linecap="round"/>
  <path d="M209.23 189.87L208.81 192.65" fill="none" stroke="#d4673a" stroke-width="8.025" stroke-linecap="round"/>
  <path d="M208.81 192.65L208.18 195.44" fill="none" stroke="#d4673a" stroke-width="8.182" stroke-linecap="round"/>
  <path d="M208.18 195.44L207.32 198.23" fill="none" stroke="#d4673a" stroke-width="8.338" stroke-linecap="round"/>
  <path d="M207.32 198.23L206.23 201.00" fill="none" stroke="#d4673a" stroke-width="8.495" stroke-linecap="round"/>
  <path d="M206.23 201.00L204.92 203.73" fill="none" stroke="#d4673a" stroke-width="8.652" stroke-linecap="round"/>
  <path d="M204.92 203.73L203.38 206.41" fill="none" stroke="#d4673a" stroke-width="8.808" stroke-linecap="round"/>
  <path d="M203.38 206.41L201.62 209.01" fill="none" stroke="#d4673a" stroke-width="8.965" stroke-linecap="round"/>
  <path d="M201.62 209.01L199.63 211.52" fill="none" stroke="#d4673a" stroke-width="9.122" stroke-linecap="round"/>
  <path d="M199.63 211.52L197.43 213.92" fill="none" stroke="#d4673a" stroke-width="9.278" stroke-linecap="round"/>
  <path d="M197.43 213.92L195.02 216.19" fill="none" stroke="#d4673a" stroke-width="9.435" stroke-linecap="round"/>
  <path d="M195.02 216.19L192.40 218.31" fill="none" stroke="#d4673a" stroke-width="9.592" stroke-linecap="round"/>
  <path d="M192.40 218.31L189.59 220.27" fill="none" stroke="#d4673a" stroke-width="9.748" stroke-linecap="round"/>
  <path d="M189.59 220.27L186.60 222.04" fill="none" stroke="#d4673a" stroke-width="9.905" stroke-linecap="round"/>
  <path d="M186.60 222.04L183.43 223.62" fill="none" stroke="#d4673a" stroke-width="10.062" stroke-linecap="round"/>
  <path d="M183.43 223.62L180.11 224.99" fill="none" stroke="#d4673a" stroke-width="10.218" stroke-linecap="round"/>
  <path d="M180.11 224.99L176.64 226.13" fill="none" stroke="#d4673a" stroke-width="10.375" stroke-linecap="round"/>
  <path d="M176.64 226.13L173.04 227.03" fill="none" stroke="#d4673a" stroke-width="10.532" stroke-linecap="round"/>
  <path d="M173.04 227.03L169.33 227.68" fill="none" stroke="#d4673a" stroke-width="10.689" stroke-linecap="round"/>
  <path d="M169.33 227.68L165.53 228.07" fill="none" stroke="#d4673a" stroke-width="10.845" stroke-linecap="round"/>
  <path d="M165.53 228.07L161.65 228.18" fill="none" stroke="#d4673a" stroke-width="11.002" stroke-linecap="round"/>
  <path d="M161.65 228.18L157.72 228.01" fill="none" stroke="#d4673a" stroke-width="11.159" stroke-linecap="round"/>
  <path d="M157.72 228.01L153.75 227.55" fill="none" stroke="#d4673a" stroke-width="11.315" stroke-linecap="round"/>
  <path d="M153.75 227.55L149.77 226.80" fill="none" stroke="#d4673a" stroke-width="11.472" stroke-linecap="round"/>
  <path d="M149.77 226.80L145.80 225.75" fill="none" stroke="#d4673a" stroke-width="11.629" stroke-linecap="round"/>
  <path d="M145.80 225.75L141.86 224.40" fill="none" stroke="#d4673a" stroke-width="11.785" stroke-linecap="round"/>
  <path d="M141.86 224.40L137.98 222.76" fill="none" stroke="#d4673a" stroke-width="11.942" stroke-linecap="round"/>
  <path d="M137.98 222.76L134.17 220.81" fill="none" stroke="#d4673a" stroke-width="12.099" stroke-linecap="round"/>
  <path d="M134.17 220.81L130.46 218.56" fill="none" stroke="#d4673a" stroke-width="12.255" stroke-linecap="round"/>
  <path d="M130.46 218.56L126.88 216.03" fill="none" stroke="#d4673a" stroke-width="12.412" stroke-linecap="round"/>
  <path d="M126.88 216.03L123.44 213.20" fill="none" stroke="#d4673a" stroke-width="12.569" stroke-linecap="round"/>
  <path d="M123.44 213.20L120.16 210.11" fill="none" stroke="#d4673a" stroke-width="12.725" stroke-linecap="round"/>
  <path d="M120.16 210.11L117.08 206.74" fill="none" stroke="#d4673a" stroke-width="12.882" stroke-linecap="round"/>
  <path d="M117.08 206.74L114.21 203.12" fill="none" stroke="#d4673a" stroke-width="13.039" stroke-linecap="round"/>
  <path d="M114.21 203.12L111.57 199.26" fill="none" stroke="#d4673a" stroke-width="13.195" stroke-linecap="round"/>
  <path d="M111.57 199.26L109.18 195.17" fill="none" stroke="#d4673a" stroke-width="13.352" stroke-linecap="round"/>
  <path d="M109.18 195.17L107.06 190.87" fill="none" stroke="#d4673a" stroke-width="13.509" stroke-linecap="round"/>
  <path d="M107.06 190.87L105.23 186.37" fill="none" stroke="#d4673a" stroke-width="13.665" stroke-linecap="round"/>
  <path d="M105.23 186.37L103.71 181.71" fill="none" stroke="#d4673a" stroke-width="13.822" stroke-linecap="round"/>
  <path d="M103.71 181.71L102.50 176.89" fill="none" stroke="#d4673a" stroke-width="13.979" stroke-linecap="round"/>
  <path d="M102.50 176.89L101.63 171.95" fill="none" stroke="#d4673a" stroke-width="14.135" stroke-linecap="round"/>
  <path d="M101.63 171.95L101.10 166.89" fill="none" stroke="#d4673a" stroke-width="14.292" stroke-linecap="round"/>
  <path d="M101.10 166.89L100.93 161.76" fill="none" stroke="#d4673a" stroke-width="14.449" stroke-linecap="round"/>
  <path d="M100.93 161.76L101.12 156.56" fill="none" stroke="#d4673a" stroke-width="14.605" stroke-linecap="round"/>
  <path d="M101.12 156.56L101.69 151.34" fill="none" stroke="#d4673a" stroke-width="14.762" stroke-linecap="round"/>
  <path d="M101.69 151.34L102.63 146.12" fill="none" stroke="#d4673a" stroke-width="14.919" stroke-linecap="round"/>
  <path d="M102.63 146.12L103.95 140.91" fill="none" stroke="#d4673a" stroke-width="15.075" stroke-linecap="round"/>
  <path d="M103.95 140.91L105.66 135.76" fill="none" stroke="#d4673a" stroke-width="15.232" stroke-linecap="round"/>
  <path d="M105.66 135.76L107.74 130.69" fill="none" stroke="#d4673a" stroke-width="15.389" stroke-linecap="round"/>
  <path d="M107.74 130.69L110.20 125.72" fill="none" stroke="#d4673a" stroke-width="15.545" stroke-linecap="round"/>
  <path d="M110.20 125.72L113.03 120.89" fill="none" stroke="#d4673a" stroke-width="15.702" stroke-linecap="round"/>
  <path d="M113.03 120.89L116.23 116.23" fill="none" stroke="#d4673a" stroke-width="15.859" stroke-linecap="round"/>
  <path d="M116.23 116.23L119.78 111.75" fill="none" stroke="#d4673a" stroke-width="16.015" stroke-linecap="round"/>
  <path d="M119.78 111.75L123.67 107.49" fill="none" stroke="#d4673a" stroke-width="16.172" stroke-linecap="round"/>
  <path d="M123.67 107.49L127.90 103.48" fill="none" stroke="#d4673a" stroke-width="16.329" stroke-linecap="round"/>
  <path d="M127.90 103.48L132.44 99.73" fill="none" stroke="#d4673a" stroke-width="16.485" stroke-linecap="round"/>
  <path d="M132.44 99.73L137.28 96.28" fill="none" stroke="#d4673a" stroke-width="16.642" stroke-linecap="round"/>
  <path d="M137.28 96.28L142.40 93.15" fill="none" stroke="#d4673a" stroke-width="16.799" stroke-linecap="round"/>
  <path d="M142.40 93.15L147.78 90.35" fill="none" stroke="#d4673a" stroke-width="16.955" stroke-linecap="round"/>
  <path d="M147.78 90.35L153.40 87.92" fill="none" stroke="#d4673a" stroke-width="17.112" stroke-linecap="round"/>
  <path d="M153.40 87.92L159.22 85.87" fill="none" stroke="#d4673a" stroke-width="17.269" stroke-linecap="round"/>
  <path d="M159.22 85.87L165.23 84.21" fill="none" stroke="#d4673a" stroke-width="17.425" stroke-linecap="round"/>
  <path d="M165.23 84.21L171.40 82.97" fill="none" stroke="#d4673a" stroke-width="17.582" stroke-linecap="round"/>
  <path d="M171.40 82.97L177.69 82.15" fill="none" stroke="#d4673a" stroke-width="17.739" stroke-linecap="round"/>
  <path d="M177.69 82.15L184.09 81.77" fill="none" stroke="#d4673a" stroke-width="17.895" stroke-linecap="round"/>
  <path d="M184.09 81.77L190.55 81.84" fill="none" stroke="#d4673a" stroke-width="18.052" stroke-linecap="round"/>
  <path d="M190.55 81.84L197.05 82.37" fill="none" stroke="#d4673a" stroke-width="18.209" stroke-linecap="round"/>
  <path d="M197.05 82.37L203.56 83.35" fill="none" stroke="#d4673a" stroke-width="18.365" stroke-linecap="round"/>
  <path d="M203.56 83.35L210.04 84.80" fill="none" stroke="#d4673a" stroke-width="18.522" stroke-linecap="round"/>
  <path d="M210.04 84.80L216.45 86.72" fill="none" stroke="#d4673a" stroke-width="18.679" stroke-linecap="round"/>
  <path d="M216.45 86.72L222.77 89.10" fill="none" stroke="#d4673a" stroke-width="18.835" stroke-linecap="round"/>
  <path d="M222.77 89.10L228.97 91.94" fill="none" stroke="#d4673a" stroke-width="18.992" stroke-linecap="round"/>
  <path d="M228.97 91.94L234.99 95.23" fill="none" stroke="#d4673a" stroke-width="19.149" stroke-linecap="round"/>
  <path d="M234.99 95.23L240.83 98.96" fill="none" stroke="#d4673a" stroke-width="19.305" stroke-linecap="round"/>
  <path d="M240.83 98.96L246.44 103.13" fill="none" stroke="#d4673a" stroke-width="19.462" stroke-linecap="round"/>
  <path d="M246.44 103.13L251.78 107.72" fill="none" stroke="#d4673a" stroke-width="19.619" stroke-linecap="round"/>
  <path d="M251.78 107.72L256.84 112.70" fill="none" stroke="#d4673a" stroke-width="19.775" stroke-linecap="round"/>
  <path d="M256.84 112.70L261.57 118.07" fill="none" stroke="#d4673a" stroke-width="19.932" stroke-linecap="round"/>
  <path d="M261.57 118.07L265.96 123.81" fill="none" stroke="#d4673a" stroke-width="20.089" stroke-linecap="round"/>
  <path d="M265.96 123.81L269.96 129.88" fill="none" stroke="#d4673a" stroke-width="20.246" stroke-linecap="round"/>
  <path d="M269.96 129.88L273.56 136.26" fill="none" stroke="#d4673a" stroke-width="20.402" stroke-linecap="round"/>
  <path d="M273.56 136.26L276.74 142.94" fill="none" stroke="#d4673a" stroke-width="20.559" stroke-linecap="round"/>
  <path d="M276.74 142.94L279.46 149.87" fill="none" stroke="#d4673a" stroke-width="20.716" stroke-linecap="round"/>
  <path d="M279.46 149.87L281.71 157.03" fill="none" stroke="#d4673a" stroke-width="20.872" stroke-linecap="round"/>
  <path d="M281.71 157.03L283.47 164.39" fill="none" stroke="#d4673a" stroke-width="21.029" stroke-linecap="round"/>
  <path d="M283.47 164.39L284.73 171.91" fill="none" stroke="#d4673a" stroke-width="21.186" stroke-linecap="round"/>
  <path d="M284.73 171.91L285.47 179.55" fill="none" stroke="#d4673a" stroke-width="21.342" stroke-linecap="round"/>
  <path d="M285.47 179.55L285.67 187.29" fill="none" stroke="#d4673a" stroke-width="21.499" stroke-linecap="round"/>
  <path d="M285.67 187.29L285.33 195.08" fill="none" stroke="#d4673a" stroke-width="21.656" stroke-linecap="round"/>
  <path d="M285.33 195.08L284.45 202.88" fill="none" stroke="#d4673a" stroke-width="21.812" stroke-linecap="round"/>
  <path d="M284.45 202.88L283.02 210.66" fill="none" stroke="#d4673a" stroke-width="21.969" stroke-linecap="round"/>
  <path d="M283.02 210.66L281.03 218.38" fill="none" stroke="#d4673a" stroke-width="22.126" stroke-linecap="round"/>
  <path d="M281.03 218.38L278.50 226.00" fill="none" stroke="#d4673a" stroke-width="22.282" stroke-linecap="round"/>
  <path d="M278.50 226.00L275.42 233.47" fill="none" stroke="#d4673a" stroke-width="22.439" stroke-linecap="round"/>
  <path d="M275.42 233.47L271.80 240.77" fill="none" stroke="#d4673a" stroke-width="22.596" stroke-linecap="round"/>
  <path d="M271.80 240.77L267.66 247.85" fill="none" stroke="#d4673a" stroke-width="22.752" stroke-linecap="round"/>
  <path d="M267.66 247.85L263.00 254.67" fill="none" stroke="#d4673a" stroke-width="22.909" stroke-linecap="round"/>
  <path d="M263.00 254.67L257.84 261.20" fill="none" stroke="#d4673a" stroke-width="23.066" stroke-linecap="round"/>
  <path d="M257.84 261.20L252.21 267.40" fill="none" stroke="#d4673a" stroke-width="23.222" stroke-linecap="round"/>
  <path d="M252.21 267.40L246.11 273.23" fill="none" stroke="#d4673a" stroke-width="23.379" stroke-linecap="round"/>
  <path d="M246.11 273.23L239.59 278.66" fill="none" stroke="#d4673a" stroke-width="23.536" stroke-linecap="round"/>
  <path d="M239.59 278.66L232.65 283.66" fill="none" stroke="#d4673a" stroke-width="23.692" stroke-linecap="round"/>
  <path d="M232.65 283.66L225.34 288.20" fill="none" stroke="#d4673a" stroke-width="23.849" stroke-linecap="round"/>
  <path d="M225.34 288.20L217.67 292.24" fill="none" stroke="#d4673a" stroke-width="24.006" stroke-linecap="round"/>
  <path d="M217.67 292.24L209.69 295.77" fill="none" stroke="#d4673a" stroke-width="24.162" stroke-linecap="round"/>
  <path d="M209.69 295.77L201.44 298.76" fill="none" stroke="#d4673a" stroke-width="24.319" stroke-linecap="round"/>
  <path d="M201.44 298.76L192.93 301.18" fill="none" stroke="#d4673a" stroke-width="24.476" stroke-linecap="round"/>
  <path d="M192.93 301.18L184.23 303.02" fill="none" stroke="#d4673a" stroke-width="24.632" stroke-linecap="round"/>
  <path d="M184.23 303.02L175.36 304.26" fill="none" stroke="#d4673a" stroke-width="24.789" stroke-linecap="round"/>
  <path d="M175.36 304.26L166.37 304.89" fill="none" stroke="#d4673a" stroke-width="24.946" stroke-linecap="round"/>
  <path d="M166.37 304.89L157.29 304.89" fill="none" stroke="#d4673a" stroke-width="25.102" stroke-linecap="round"/>
  <path d="M157.29 304.89L148.18 304.27" fill="none" stroke="#d4673a" stroke-width="25.259" stroke-linecap="round"/>
  <path d="M148.18 304.27L139.08 303.00" fill="none" stroke="#d4673a" stroke-width="25.416" stroke-linecap="round"/>
  <path d="M139.08 303.00L130.04 301.09" fill="none" stroke="#d4673a" stroke-width="25.572" stroke-linecap="round"/>
  <path d="M130.04 301.09L121.09 298.55" fill="none" stroke="#d4673a" stroke-width="25.729" stroke-linecap="round"/>
  <path d="M121.09 298.55L112.28 295.37" fill="none" stroke="#d4673a" stroke-width="25.886" stroke-linecap="round"/>
  <path d="M112.28 295.37L103.66 291.57" fill="none" stroke="#d4673a" stroke-width="26.042" stroke-linecap="round"/>
  <path d="M103.66 291.57L95.27 287.15" fill="none" stroke="#d4673a" stroke-width="26.199" stroke-linecap="round"/>
  <path d="M95.27 287.15L87.16 282.14" fill="none" stroke="#d4673a" stroke-width="26.356" stroke-linecap="round"/>
  <path d="M87.16 282.14L79.37 276.54" fill="none" stroke="#d4673a" stroke-width="26.512" stroke-linecap="round"/>
  <path d="M79.37 276.54L71.94 270.37" fill="none" stroke="#d4673a" stroke-width="26.669" stroke-linecap="round"/>
  <path d="M71.94 270.37L64.91 263.67" fill="none" stroke="#d4673a" stroke-width="26.826" stroke-linecap="round"/>
  <path d="M64.91 263.67L58.33 256.45" fill="none" stroke="#d4673a" stroke-width="26.982" stroke-linecap="round"/>
  <path d="M58.33 256.45L52.22 248.76" fill="none" stroke="#d4673a" stroke-width="27.139" stroke-linecap="round"/>
  <path d="M52.22 248.76L46.63 240.60" fill="none" stroke="#d4673a" stroke-width="27.296" stroke-linecap="round"/>
  <path d="M46.63 240.60L41.58 232.04" fill="none" stroke="#d4673a" stroke-width="27.452" stroke-linecap="round"/>
  <path d="M41.58 232.04L37.12 223.09" fill="none" stroke="#d4673a" stroke-width="27.609" stroke-linecap="round"/>
  <path d="M37.12 223.09L33.26 213.80" fill="none" stroke="#d4673a" stroke-width="27.766" stroke-linecap="round"/>
  <path d="M33.26 213.80L30.03 204.21" fill="none" stroke="#d4673a" stroke-width="27.922" stroke-linecap="round"/>
  <path d="M30.03 204.21L27.46 194.36" fill="none" stroke="#d4673a" stroke-width="28.079" stroke-linecap="round"/>
  <path d="M27.46 194.36L25.57 184.30" fill="none" stroke="#d4673a" stroke-width="28.236" stroke-linecap="round"/>
  <path d="M25.57 184.30L24.37 174.08" fill="none" stroke="#d4673a" stroke-width="28.392" stroke-linecap="round"/>
  </g>
</svg>